<svg width="16" height="15" viewBox="0 0 16 15" fill="none" xmlns="http://www.w3.org/2000/svg">
<path fill-rule="evenodd" clip-rule="evenodd" d="M7.99982 8.76571L13.6568 14.4227C13.8454 14.6049 14.098 14.7057 14.3602 14.7034C14.6224 14.7011 14.8732 14.5959 15.0586 14.4105C15.2441 14.2251 15.3492 13.9743 15.3515 13.7121C15.3538 13.4499 15.253 13.1973 15.0708 13.0087L9.41382 7.35171L15.0708 1.69471C15.253 1.50611 15.3538 1.25351 15.3515 0.991311C15.3492 0.729114 15.2441 0.478302 15.0586 0.292894C14.8732 0.107485 14.6224 0.00231622 14.3602 3.78026e-05C14.098 -0.00224062 13.8454 0.0985537 13.6568 0.280712L7.99982 5.93771L2.34282 0.280712C2.15337 0.103057 1.90224 0.0060773 1.64255 0.0102941C1.38287 0.0145109 1.13502 0.119593 0.951433 0.303306C0.76785 0.487018 0.662943 0.734948 0.65891 0.994633C0.654877 1.25432 0.752034 1.50539 0.929823 1.69471L6.58582 7.35171L0.928823 13.0087C0.833313 13.101 0.757131 13.2113 0.704722 13.3333C0.652313 13.4553 0.624727 13.5865 0.623573 13.7193C0.622419 13.8521 0.647721 13.9838 0.698001 14.1067C0.748282 14.2296 0.822535 14.3412 0.916428 14.4351C1.01032 14.529 1.12197 14.6033 1.24487 14.6535C1.36777 14.7038 1.49944 14.7291 1.63222 14.728C1.765 14.7268 1.89622 14.6992 2.01823 14.6468C2.14023 14.5944 2.25058 14.5182 2.34282 14.4227L7.99982 8.76571Z" fill="white"/>
</svg>
