<svg width="30" height="30" viewBox="0 0 30 30" fill="none" xmlns="http://www.w3.org/2000/svg">
<path d="M14.925 23.5291C15.45 23.5291 15.894 23.3535 16.257 23.0023C16.62 22.6511 16.801 22.222 16.8 21.715C16.799 21.208 16.618 20.7784 16.257 20.4262C15.896 20.074 15.452 19.8989 14.925 19.9008C14.398 19.9028 13.9545 20.0784 13.5945 20.4276C13.2345 20.7769 13.053 21.206 13.05 21.715C13.047 22.2239 13.2285 22.6535 13.5945 23.0038C13.9605 23.354 14.404 23.5291 14.925 23.5291ZM13.575 17.9415H16.35C16.35 17.1433 16.444 16.5144 16.632 16.0548C16.82 15.5952 17.351 14.9663 18.225 14.1681C18.875 13.5392 19.3875 12.9402 19.7625 12.3713C20.1375 11.8024 20.325 11.1193 20.325 10.322C20.325 8.96747 19.8125 7.92735 18.7875 7.20168C17.7625 6.47602 16.55 6.11319 15.15 6.11319C13.725 6.11319 12.569 6.47602 11.682 7.20168C10.795 7.92735 10.176 8.79815 9.825 9.81408L12.3 10.7574C12.425 10.322 12.7065 9.85036 13.1445 9.34239C13.5825 8.83443 14.251 8.58045 15.15 8.58045C15.95 8.58045 16.55 8.79234 16.95 9.21613C17.35 9.63992 17.55 10.1053 17.55 10.6123C17.55 11.0961 17.4 11.5499 17.1 11.9737C16.8 12.3974 16.425 12.7903 15.975 13.1521C14.875 14.0955 14.2 14.8091 13.95 15.2928C13.7 15.7766 13.575 16.6595 13.575 17.9415ZM15 29.3345C12.925 29.3345 10.975 28.9537 9.15 28.1923C7.325 27.4308 5.7375 26.3965 4.3875 25.0893C3.0375 23.7822 1.969 22.2462 1.182 20.4813C0.395002 18.7165 0.0010019 16.8298 1.89873e-06 14.8212C-0.000998101 12.8125 0.393002 10.9258 1.182 9.16098C1.971 7.39616 3.0395 5.86017 4.3875 4.55301C5.7355 3.24584 7.323 2.21201 9.15 1.45152C10.977 0.69102 12.927 0.309804 15 0.307869C17.073 0.305934 19.023 0.68715 20.85 1.45152C22.677 2.21588 24.2645 3.24971 25.6125 4.55301C26.9605 5.8563 28.0295 7.39229 28.8195 9.16098C29.6095 10.9297 30.003 12.8164 30 14.8212C29.997 16.8259 29.603 18.7127 28.818 20.4813C28.033 22.25 26.9645 23.786 25.6125 25.0893C24.2605 26.3926 22.673 27.4269 20.85 28.1923C19.027 28.9576 17.077 29.3383 15 29.3345Z" fill="#727272"/>
</svg>
