<svg width="33" height="25" viewBox="0 0 33 25" fill="none" xmlns="http://www.w3.org/2000/svg">
<path fill-rule="evenodd" clip-rule="evenodd" d="M0.413628 13.4788C0.148768 13.2191 -5.30349e-07 12.867 -5.46392e-07 12.5C-5.62436e-07 12.133 0.148768 11.7809 0.413628 11.5212L11.7283 0.44083C11.8578 0.30475 12.014 0.195604 12.1875 0.119903C12.3609 0.0442023 12.5482 0.00349753 12.7381 0.000216881C12.928 -0.00306567 13.1167 0.0311445 13.2928 0.100805C13.4689 0.170465 13.6289 0.27415 13.7632 0.405671C13.8975 0.537195 14.0034 0.69386 14.0745 0.866323C14.1456 1.03879 14.1806 1.22351 14.1772 1.40948C14.1739 1.59545 14.1323 1.77886 14.055 1.94876C13.9777 2.11866 13.8662 2.27157 13.7273 2.39837L4.82637 11.1149L31.5857 11.1149C31.9608 11.1149 32.3205 11.2609 32.5857 11.5206C32.851 11.7804 33 12.1327 33 12.5C33 12.8673 32.851 13.2196 32.5858 13.4794C32.3205 13.7391 31.9608 13.885 31.5857 13.885L4.82637 13.885L13.7273 22.6016C13.8662 22.7284 13.9777 22.8813 14.055 23.0512C14.1323 23.2211 14.1739 23.4045 14.1772 23.5905C14.1806 23.7765 14.1456 23.9612 14.0745 24.1337C14.0034 24.3061 13.8975 24.4628 13.7632 24.5943C13.6289 24.7259 13.4689 24.8295 13.2928 24.8992C13.1167 24.9689 12.928 25.0031 12.7381 24.9998C12.5482 24.9965 12.3609 24.9558 12.1875 24.8801C12.014 24.8044 11.8578 24.6952 11.7283 24.5592L0.413628 13.4788Z" fill="black"/>
</svg>
