<svg width="34" height="49" viewBox="0 0 34 49" fill="none" xmlns="http://www.w3.org/2000/svg">
<path d="M17.6068 0.148756C21.0187 -0.627862 23.4769 1.79135 24.07 3.81413L24.0748 3.83363L24.286 4.59075C25.2251 3.63054 26.5119 3.09113 28.057 3.09113C28.7569 3.09092 29.45 3.22861 30.0966 3.49635C30.7433 3.76409 31.3308 4.15662 31.8257 4.65151C32.3206 5.14641 32.7132 5.73397 32.9809 6.38062C33.2486 7.02727 33.3863 7.72034 33.3861 8.42023C33.3861 11.8208 33.3682 15.2928 33.3487 18.76V18.7616C33.3309 22.232 33.313 25.6959 33.313 29.0867C33.313 40.2128 25.1569 48.2747 16.0584 48.33H16.0536C8.80729 48.3462 2.46599 44.1284 0.241741 37.4719C-0.0565019 36.4775 -0.0792176 35.4207 0.176016 34.4144C0.431249 33.4081 0.954858 32.4899 1.691 31.7578C1.47801 31.5361 1.28195 31.2988 1.10447 31.0478C0.139383 29.6879 -0.346409 27.8146 0.287233 26.0095C1.60326 22.2678 4.66099 19.0947 8.71955 17.2409L3.66016 8.96126C2.87704 7.64686 2.75032 6.079 3.07039 4.70936C3.39208 3.34459 4.21094 1.98469 5.56271 1.20158C8.21426 -0.330538 11.7822 0.337224 13.3289 2.97578L13.8098 3.75239C14.0855 2.8795 14.5784 2.09092 15.2423 1.46062C15.9061 0.830307 16.7208 0.378912 17.6068 0.148756ZM5.56596 30.2322C6.45956 30.2322 6.96323 29.8747 7.55625 29.1371C7.78154 28.8518 7.99668 28.5586 8.20126 28.2581C8.32149 28.0859 8.44985 27.9007 8.59932 27.6943C8.98601 27.1582 9.4653 26.5408 10.0859 26.0046C11.5887 24.724 13.5147 24.0491 15.4882 24.1118H15.4979C17.922 24.1996 19.8245 25.2248 21.0918 26.7731C22.3331 28.2906 22.9018 30.2257 22.879 32.0941C22.8563 33.9625 22.2405 35.8797 20.9619 37.3566C19.6556 38.8659 17.7287 39.8262 15.3127 39.8262C13.7205 39.8262 12.1055 39.2542 10.7781 38.3866C9.45393 37.5207 8.26625 36.2583 7.68623 34.7261C7.46364 34.1331 6.58142 33.5255 5.51235 33.4816L5.39212 33.4784H5.38562C4.08096 33.4784 2.89492 34.8984 3.33359 36.4743C5.08342 41.6588 10.0762 45.0935 16.0406 45.0805C23.1569 45.0366 30.0619 38.6239 30.0619 29.0867C30.0619 25.6862 30.0798 22.2141 30.0977 18.747C30.1172 15.2766 30.135 11.811 30.135 8.42023C30.135 7.26992 29.2057 6.34058 28.0554 6.34058C27.1732 6.34058 26.6906 6.66878 26.3673 7.16919C26.3482 7.19857 26.3298 7.22836 26.3121 7.25855C26.1505 7.79705 26.0711 8.35683 26.0765 8.91902V8.94176L25.8815 13.6307C25.823 15.0231 23.8506 15.2424 23.4867 13.8972L22.6451 10.768C22.6312 10.7289 22.6187 10.6893 22.6077 10.6493L20.9472 4.72073C20.7263 3.98311 19.7238 3.01964 18.359 3.30884C17.8294 3.46241 17.3795 3.81455 17.1031 4.2918C17.0911 4.36133 17.0814 4.43123 17.0739 4.50139C16.9975 5.18378 17.0983 5.94415 17.2185 6.42344L17.2217 6.43969L18.8465 13.595C19.1519 14.9451 17.3273 15.6795 16.6125 14.4934L14.9569 11.7412L10.5571 4.67361C10.5477 4.6586 10.5385 4.64343 10.5295 4.62812C10.0193 3.74427 8.52784 3.24061 7.18906 4.0156C6.77151 4.25768 6.3962 4.76297 6.23372 5.45348C6.07125 6.14074 6.16874 6.81825 6.44819 7.29267L11.8715 16.1718C12.0746 16.3521 12.3021 16.5146 12.5474 16.6608C12.8345 16.8377 13.0418 17.119 13.1258 17.4456C13.2005 17.7055 13.2054 17.9801 13.1697 18.2222C13.1329 18.4861 13.038 18.7386 12.8918 18.9614C12.7965 19.1088 12.6711 19.2344 12.5238 19.3299C12.3765 19.4254 12.2107 19.4886 12.0372 19.5155C11.9052 19.5339 11.7736 19.5551 11.6424 19.5788L11.6229 19.5853C7.44739 20.9745 4.48227 23.8697 3.35309 27.0867C3.137 27.6976 3.26373 28.4791 3.75277 29.168C4.22232 29.8308 4.87708 30.1997 5.47985 30.2289L5.56596 30.2322ZM9.52704 31.8081C10.0405 32.2842 10.4596 32.8723 10.7261 33.5775C11.0023 34.3118 11.6522 35.0755 12.5555 35.6669C13.4572 36.2566 14.4662 36.5767 15.3127 36.5767C16.8026 36.5767 17.8278 36.0129 18.5069 35.2282C19.212 34.4126 19.615 33.2671 19.6296 32.0551C19.6458 30.8414 19.2721 29.6781 18.5784 28.8316C17.9122 28.0193 16.8887 27.4149 15.3858 27.3596C14.2292 27.3227 13.0997 27.7144 12.2143 28.4596L12.2078 28.4645C11.8829 28.7455 11.5823 29.1127 11.2362 29.5936C11.1469 29.7155 11.0494 29.8568 10.9438 30.0047C10.6855 30.3768 10.3849 30.8073 10.0876 31.1761C9.91535 31.3906 9.73013 31.6034 9.52704 31.8081Z" fill="#212529"/>
</svg>
