<svg width="52" height="52" viewBox="0 0 52 52" fill="none" xmlns="http://www.w3.org/2000/svg">
<path d="M51.2223 32.2875C47.7484 46.2235 33.629 54.6951 19.7129 51.221C5.77645 47.7472 -2.69509 33.6284 0.778957 19.7125C4.2528 5.77645 18.3517 -2.69509 32.2881 0.778959C46.2043 4.23249 54.6963 18.3513 51.2223 32.2875Z" fill="url(#paint0_linear_137_592)"/>
<path d="M38.3795 22.7602C38.8873 19.3071 36.267 17.4383 32.6514 16.1992L33.8295 11.507L30.9858 10.7961L29.8483 15.3664C29.0967 15.1836 28.3248 15.0008 27.5529 14.8383L28.6904 10.2477L25.8467 9.53673L24.6889 14.2086C24.0592 14.0664 23.4498 13.9242 22.8608 13.782V13.7617L18.9201 12.7867L18.1686 15.8336C18.1686 15.8336 20.2811 16.3211 20.2404 16.3414C21.3982 16.6258 21.6014 17.3977 21.5607 18.007L20.2201 23.3492C20.3014 23.3696 20.4029 23.3899 20.5248 23.4508C20.4232 23.4305 20.3217 23.4102 20.2201 23.3696L18.3514 30.8446C18.2092 31.1899 17.8436 31.718 17.0514 31.5149C17.0717 31.5555 14.9795 31.0071 14.9795 31.0071L13.5576 34.2774L17.2748 35.2118C17.9654 35.3946 18.6357 35.5571 19.3061 35.7399L18.1279 40.4727L20.9717 41.1836L22.1498 36.4914C22.9217 36.6946 23.6936 36.8977 24.4248 37.0805L23.267 41.7524L26.1108 42.4633L27.2889 37.7305C32.1639 38.6446 35.8201 38.2789 37.3436 33.8711C38.5826 30.3368 37.2826 28.2852 34.7233 26.9446C36.6123 26.518 38.0139 25.2789 38.3795 22.7602ZM31.8592 31.9008C30.9858 35.4352 25.0139 33.5258 23.0842 33.0383L24.6483 26.7617C26.5779 27.2492 32.7936 28.2039 31.8592 31.9008ZM32.7529 22.6992C31.9404 25.9289 26.9842 24.2836 25.3795 23.8774L26.8014 18.1899C28.4061 18.5961 33.5858 19.3477 32.7529 22.6992Z" fill="white"/>
<defs>
<linearGradient id="paint0_linear_137_592" x1="2598.6" y1="-1.248" x2="2598.6" y2="5199.48" gradientUnits="userSpaceOnUse">
<stop stop-color="#F9AA4B"/>
<stop offset="1" stop-color="#F7931A"/>
</linearGradient>
</defs>
</svg>
