<svg width="38" height="37" viewBox="0 0 38 37" fill="none" xmlns="http://www.w3.org/2000/svg">
<path d="M34.2 21.2287V34.4149C34.2 34.9145 33.9998 35.3936 33.6435 35.7469C33.2872 36.1002 32.8039 36.2986 32.3 36.2986H5.7C5.19609 36.2986 4.71282 36.1002 4.3565 35.7469C4.00018 35.3936 3.8 34.9145 3.8 34.4149V21.2287H34.2ZM23.75 0.507475C24.872 0.507245 25.9758 0.788467 26.9586 1.32496C27.9415 1.86145 28.7715 2.63578 29.3713 3.57584C29.9711 4.51591 30.3213 5.59116 30.3892 6.7015C30.4571 7.81184 30.2405 8.92116 29.7597 9.9262H36.1C36.6039 9.9262 37.0872 10.1247 37.4435 10.4779C37.7998 10.8312 38 11.3104 38 11.81V17.4612C38 17.9608 37.7998 18.4399 37.4435 18.7932C37.0872 19.1465 36.6039 19.3449 36.1 19.3449H1.9C1.39609 19.3449 0.912816 19.1465 0.556497 18.7932C0.200178 18.4399 0 17.9608 0 17.4612V11.81C0 11.3104 0.200178 10.8312 0.556497 10.4779C0.912816 10.1247 1.39609 9.9262 1.9 9.9262H8.2403C7.56344 8.51654 7.41309 6.91448 7.81603 5.40521C8.21897 3.89595 9.14905 2.57742 10.4407 1.68435C11.7323 0.791283 13.3017 0.381632 14.8695 0.528324C16.4372 0.675015 17.9016 1.36853 19.0019 2.48541C19.6196 1.85757 20.3581 1.35901 21.1737 1.01926C21.9893 0.679513 22.8654 0.505482 23.75 0.507475ZM14.25 4.27497C13.5179 4.27484 12.8139 4.55402 12.2838 5.05463C11.7537 5.55525 11.4383 6.23889 11.4029 6.96385C11.3674 7.68882 11.6147 8.39949 12.0935 8.94856C12.5723 9.49763 13.2458 9.84298 13.9745 9.91302L14.25 9.9262H17.1V7.10058C17.1 6.39817 16.8361 5.72095 16.3597 5.20098C15.8834 4.68101 15.2288 4.35559 14.5236 4.28815L14.25 4.27497ZM23.75 4.27497L23.4745 4.28815C22.8169 4.35146 22.2019 4.63934 21.7347 5.10253C21.2675 5.56572 20.9772 6.17546 20.9133 6.82744L20.9 7.10058V9.9262H23.75L24.0236 9.91302C24.7285 9.84526 25.3828 9.51969 25.8588 8.99975C26.3349 8.47982 26.5986 7.80278 26.5986 7.10058C26.5986 6.39839 26.3349 5.72135 25.8588 5.20142C25.3828 4.68148 24.7285 4.35591 24.0236 4.28815L23.75 4.27497Z" fill="#F49C14"/>
</svg>
