<svg width="279" height="252" viewBox="0 0 279 252" fill="none" xmlns="http://www.w3.org/2000/svg">
<path d="M178.222 22.5058L271.524 178.246C284.932 200.615 278.347 230.044 256.807 243.97C249.577 248.661 241.15 251.161 232.538 251.17H45.92C20.5652 251.17 0 229.82 0 203.461C0 194.545 2.40878 185.823 6.93395 178.246L100.25 22.5058C113.644 0.137564 141.965 -6.71385 163.505 7.21224C169.464 11.0635 174.504 16.2963 178.222 22.5058ZM139.236 195.354C142.929 195.354 146.47 193.884 149.081 191.267C151.693 188.65 153.16 185.101 153.16 181.4C153.16 177.699 151.693 174.15 149.081 171.533C146.47 168.916 142.929 167.446 139.236 167.446C135.543 167.446 132.002 168.916 129.39 171.533C126.779 174.15 125.312 177.699 125.312 181.4C125.312 185.101 126.779 188.65 129.39 191.267C132.002 193.884 135.543 195.354 139.236 195.354ZM139.236 69.768C135.543 69.768 132.002 71.2382 129.39 73.8551C126.779 76.4719 125.312 80.0212 125.312 83.722V139.538C125.312 143.239 126.779 146.788 129.39 149.405C132.002 152.022 135.543 153.492 139.236 153.492C142.929 153.492 146.47 152.022 149.081 149.405C151.693 146.788 153.16 143.239 153.16 139.538V83.722C153.16 80.0212 151.693 76.4719 149.081 73.8551C146.47 71.2382 142.929 69.768 139.236 69.768Z" fill="white"/>
</svg>
