<svg width="64" height="32" viewBox="0 0 64 32" fill="none" xmlns="http://www.w3.org/2000/svg">
<path d="M0 3.2C0 2.35131 0.337142 1.53738 0.937258 0.937259C1.53737 0.337143 2.35131 0 3.2 0H60.8C61.6487 0 62.4626 0.337143 63.0627 0.937259C63.6629 1.53738 64 2.35131 64 3.2C64 4.04869 63.6629 4.86262 63.0627 5.46274C62.4626 6.06286 61.6487 6.4 60.8 6.4H3.2C2.35131 6.4 1.53737 6.06286 0.937258 5.46274C0.337142 4.86262 0 4.04869 0 3.2ZM0 16C0 15.1513 0.337142 14.3374 0.937258 13.7373C1.53737 13.1371 2.35131 12.8 3.2 12.8H60.8C61.6487 12.8 62.4626 13.1371 63.0627 13.7373C63.6629 14.3374 64 15.1513 64 16C64 16.8487 63.6629 17.6626 63.0627 18.2627C62.4626 18.8629 61.6487 19.2 60.8 19.2H3.2C2.35131 19.2 1.53737 18.8629 0.937258 18.2627C0.337142 17.6626 0 16.8487 0 16ZM3.2 25.6C2.35131 25.6 1.53737 25.9371 0.937258 26.5373C0.337142 27.1374 0 27.9513 0 28.8C0 29.6487 0.337142 30.4626 0.937258 31.0627C1.53737 31.6629 2.35131 32 3.2 32H41.6C42.4487 32 43.2626 31.6629 43.8627 31.0627C44.4629 30.4626 44.8 29.6487 44.8 28.8C44.8 27.9513 44.4629 27.1374 43.8627 26.5373C43.2626 25.9371 42.4487 25.6 41.6 25.6H3.2Z" fill="black"/>
</svg>
