<svg width="12" height="22" viewBox="0 0 12 22" fill="none" xmlns="http://www.w3.org/2000/svg">
<path d="M0.322477 20.1451C0.219466 20.2501 0.138936 20.3735 0.0854823 20.5085C0.0320286 20.6434 0.00669821 20.7871 0.0109392 20.9315C0.0151802 21.0758 0.0489095 21.2179 0.1102 21.3497C0.17149 21.4815 0.25914 21.6004 0.368148 21.6996C0.477157 21.7988 0.605388 21.8763 0.745519 21.9278C0.88565 21.9793 1.03494 22.0036 1.18486 21.9996C1.33478 21.9955 1.48239 21.963 1.61928 21.904C1.75616 21.845 1.87964 21.7606 1.98265 21.6556L11.6879 11.7614C11.8883 11.5573 12 11.2871 12 11.0062C12 10.7253 11.8883 10.455 11.6879 10.2509L1.98265 0.355629C1.88032 0.248375 1.75687 0.161766 1.61948 0.100834C1.4821 0.039903 1.3335 0.00586393 1.18234 0.000692733C1.03117 -0.00447846 0.88044 0.0193236 0.738906 0.0707134C0.597373 0.122103 0.467857 0.200058 0.357878 0.300049C0.2479 0.400041 0.159652 0.520075 0.0982623 0.653181C0.0368723 0.786288 0.00356377 0.929813 0.000270289 1.07542C-0.00302319 1.22102 0.023764 1.36581 0.0790771 1.50136C0.13439 1.63692 0.217126 1.76054 0.322479 1.86504L9.28785 11.0062L0.322477 20.1451Z" fill="#F49C14"/>
</svg>
