<svg width="26" height="32" viewBox="0 0 26 32" fill="none" xmlns="http://www.w3.org/2000/svg">
<path fill-rule="evenodd" clip-rule="evenodd" d="M20.7999 0C22.0729 0 23.2938 0.50571 24.194 1.40588C25.0941 2.30605 25.5999 3.52694 25.5999 4.79997V30.3998C25.5997 30.7012 25.5144 30.9964 25.3538 31.2514C25.1932 31.5064 24.9639 31.7108 24.6922 31.8413C24.4206 31.9717 24.1176 32.0227 23.8182 31.9885C23.5188 31.9542 23.2351 31.8362 22.9999 31.6478L19.9999 29.2478L16.9999 31.6478C16.6926 31.894 16.3052 32.0183 15.912 31.9967C15.5188 31.9752 15.1473 31.8094 14.8687 31.531L12.7999 29.4622L10.7311 31.531C10.4527 31.8096 10.0814 31.9757 9.68817 31.9975C9.29495 32.0194 8.90749 31.8954 8.59995 31.6494L5.59997 29.2478L2.59999 31.6478C2.36474 31.8362 2.08109 31.9542 1.78169 31.9885C1.48228 32.0227 1.1793 31.9717 0.907625 31.8413C0.635948 31.7108 0.406623 31.5064 0.24605 31.2514C0.0854782 30.9964 0.000188223 30.7012 0 30.3998V4.79997C0 3.52694 0.50571 2.30605 1.40588 1.40588C2.30605 0.50571 3.52694 0 4.79997 0H20.7999ZM12.7999 15.9999H7.99995C7.57561 15.9999 7.16865 16.1685 6.86859 16.4685C6.56853 16.7686 6.39996 17.1756 6.39996 17.5999C6.39996 18.0242 6.56853 18.4312 6.86859 18.7313C7.16865 19.0313 7.57561 19.1999 7.99995 19.1999H12.7999C13.2243 19.1999 13.6312 19.0313 13.9313 18.7313C14.2313 18.4312 14.3999 18.0242 14.3999 17.5999C14.3999 17.1756 14.2313 16.7686 13.9313 16.4685C13.6312 16.1685 13.2243 15.9999 12.7999 15.9999ZM17.5999 9.59995H7.99995C7.59215 9.6004 7.19991 9.75655 6.90337 10.0365C6.60683 10.3164 6.42839 10.6991 6.40449 11.1062C6.38059 11.5133 6.51304 11.9141 6.77478 12.2269C7.03653 12.5396 7.4078 12.7406 7.81276 12.7887L7.99995 12.7999H17.5999C18.0077 12.7995 18.3999 12.6433 18.6965 12.3634C18.993 12.0834 19.1715 11.7008 19.1954 11.2937C19.2193 10.8866 19.0868 10.4857 18.8251 10.173C18.5633 9.86029 18.192 9.65931 17.7871 9.61115L17.5999 9.59995Z" fill="black"/>
</svg>
