<svg width="66" height="54" viewBox="0 0 66 54" fill="none" xmlns="http://www.w3.org/2000/svg">
<path d="M55.8611 43.7786C55.8611 45.7814 55.0655 47.7022 53.6493 49.1184C52.2331 50.5346 50.3124 51.3302 48.3096 51.3302C46.3068 51.3302 44.386 50.5346 42.9698 49.1184C41.5536 47.7022 40.758 45.7814 40.758 43.7786C40.758 41.7758 41.5536 39.855 42.9698 38.4389C44.386 37.0227 46.3068 36.2271 48.3096 36.2271C50.3124 36.2271 52.2331 37.0227 53.6493 38.4389C55.0655 39.855 55.8611 41.7758 55.8611 43.7786ZM25.6549 43.7786C25.6549 45.7814 24.8593 47.7022 23.4431 49.1184C22.0269 50.5346 20.1061 51.3302 18.1033 51.3302C16.1005 51.3302 14.1798 50.5346 12.7636 49.1184C11.3474 47.7022 10.5518 45.7814 10.5518 43.7786C10.5518 41.7758 11.3474 39.855 12.7636 38.4389C14.1798 37.0227 16.1005 36.2271 18.1033 36.2271C20.1061 36.2271 22.0269 37.0227 23.4431 38.4389C24.8593 39.855 25.6549 41.7758 25.6549 43.7786Z" stroke="#212529" stroke-width="5" stroke-linecap="round" stroke-linejoin="round"/>
<path d="M40.7578 43.7784H25.6547M55.8609 43.7784H58.1657C58.8302 43.7784 59.1625 43.7784 59.4404 43.7422C60.4403 43.6177 61.3703 43.1633 62.0831 42.4511C62.7959 41.7388 63.251 40.8092 63.3763 39.8093C63.4125 39.5284 63.4125 39.1961 63.4125 38.5316V30.1856C63.4125 24.9783 61.3439 19.9843 57.6618 16.3022C53.9797 12.6201 48.9857 10.5516 43.7784 10.5516M42.2681 37.7372V12.0619C42.2681 7.79071 42.2681 5.65513 40.939 4.32908C39.616 3 37.4804 3 33.2062 3H12.0619C7.79071 3 5.65513 3 4.32908 4.32908C3 5.65211 3 7.78769 3 12.0619V36.2269C3 39.0512 3 40.4618 3.60715 41.513C4.0048 42.2017 4.57674 42.7736 5.26547 43.1713C6.31665 43.7784 7.72728 43.7784 10.5516 43.7784" stroke="#212529" stroke-width="5" stroke-linecap="round" stroke-linejoin="round"/>
</svg>
