<svg width="36" height="20" viewBox="0 0 36 20" fill="none" xmlns="http://www.w3.org/2000/svg">
<path d="M35.2076 0.819019C34.7 0.345209 34.0118 0.0790365 33.2941 0.0790365C32.5765 0.0790364 31.8882 0.345209 31.3806 0.819019L17.9837 13.3296L4.58668 0.819017C4.07623 0.358634 3.39257 0.103889 2.68295 0.109647C1.97332 0.115405 1.2945 0.381207 0.792703 0.849803C0.290907 1.3184 0.00627294 1.9523 0.000104516 2.61497C-0.00606009 3.27764 0.266736 3.91606 0.75974 4.39273L16.0702 18.6901C16.5777 19.1639 17.266 19.4301 17.9837 19.4301C18.7013 19.4301 19.3896 19.1639 19.8971 18.6901L35.2076 4.39274C35.715 3.91878 36 3.27605 36 2.60588C36 1.93571 35.715 1.29297 35.2076 0.819019Z" fill="url(#paint0_linear_131_824)"/>
<defs>
<linearGradient id="paint0_linear_131_824" x1="18" y1="19.4301" x2="18" y2="0.0790352" gradientUnits="userSpaceOnUse">
<stop/>
<stop offset="1"/>
</linearGradient>
</defs>
</svg>
