<svg width="40" height="44" viewBox="0 0 40 44" fill="none" xmlns="http://www.w3.org/2000/svg">
<path fill-rule="evenodd" clip-rule="evenodd" d="M6.53331 13.0666C6.53331 9.60113 7.90997 6.27759 10.3604 3.82712C12.8109 1.37666 16.1344 0 19.5999 0C23.0654 0 26.389 1.37666 28.8394 3.82712C31.2899 6.27759 32.6665 9.60113 32.6665 13.0666H34.8443C35.9995 13.0666 37.1073 13.5255 37.9241 14.3423C38.741 15.1591 39.1999 16.267 39.1999 17.4222V39.1998C39.1999 40.355 38.741 41.4629 37.9241 42.2797C37.1073 43.0965 35.9995 43.5554 34.8443 43.5554H4.35554C3.20038 43.5554 2.09253 43.0965 1.27571 42.2797C0.458886 41.4629 0 40.355 0 39.1998V17.4222C0 16.267 0.458886 15.1591 1.27571 14.3423C2.09253 13.5255 3.20038 13.0666 4.35554 13.0666H6.53331ZM19.5999 4.35554C21.9102 4.35554 24.1259 5.27331 25.7596 6.90695C27.3932 8.5406 28.311 10.7563 28.311 13.0666H10.8888C10.8888 10.7563 11.8066 8.5406 13.4403 6.90695C15.0739 5.27331 17.2896 4.35554 19.5999 4.35554ZM23.9555 26.1332C23.9554 26.8978 23.7542 27.6488 23.3719 28.3109C22.9896 28.973 22.4398 29.5229 21.7777 29.9051V32.6665C21.7777 33.2441 21.5483 33.798 21.1398 34.2065C20.7314 34.6149 20.1775 34.8443 19.5999 34.8443C19.0223 34.8443 18.4684 34.6149 18.06 34.2065C17.6516 33.798 17.4222 33.2441 17.4222 32.6665V29.9051C16.5919 29.4257 15.943 28.6857 15.5761 27.7999C15.2092 26.9141 15.1448 25.932 15.393 25.0059C15.6411 24.0798 16.1879 23.2615 16.9486 22.6778C17.7092 22.0941 18.6412 21.7777 19.5999 21.7777C20.7551 21.7777 21.8629 22.2366 22.6798 23.0534C23.4966 23.8702 23.9555 24.9781 23.9555 26.1332Z" fill="black"/>
</svg>
