<svg width="16" height="20" viewBox="0 0 16 20" fill="none" xmlns="http://www.w3.org/2000/svg">
<path fill-rule="evenodd" clip-rule="evenodd" d="M7 0C6.20435 0 5.44129 0.316071 4.87868 0.87868C4.31607 1.44129 4 2.20435 4 3V17C4 17.7956 4.31607 18.5587 4.87868 19.1213C5.44129 19.6839 6.20435 20 7 20H13C13.7956 20 14.5587 19.6839 15.1213 19.1213C15.6839 18.5587 16 17.7956 16 17V3C16 2.20435 15.6839 1.44129 15.1213 0.87868C14.5587 0.316071 13.7956 0 13 0H7ZM8.293 6.293C8.48053 6.10553 8.73484 6.00021 9 6.00021C9.26516 6.00021 9.51947 6.10553 9.707 6.293L12.707 9.293C12.8945 9.48053 12.9998 9.73484 12.9998 10C12.9998 10.2652 12.8945 10.5195 12.707 10.707L9.707 13.707C9.5184 13.8892 9.2658 13.99 9.0036 13.9877C8.7414 13.9854 8.49059 13.8802 8.30518 13.6948C8.11977 13.5094 8.0146 13.2586 8.01233 12.9964C8.01005 12.7342 8.11084 12.4816 8.293 12.293L9.586 11H1C0.734784 11 0.48043 10.8946 0.292893 10.7071C0.105357 10.5196 0 10.2652 0 10C0 9.73478 0.105357 9.48043 0.292893 9.29289C0.48043 9.10536 0.734784 9 1 9H9.586L8.293 7.707C8.10553 7.51947 8.00021 7.26516 8.00021 7C8.00021 6.73484 8.10553 6.48053 8.293 6.293Z" fill="#1A1B1F"/>
</svg>
