<svg width="44" height="52" viewBox="0 0 44 52" fill="none" xmlns="http://www.w3.org/2000/svg">
<g clip-path="url(#clip0_135_377)">
<path d="M37.3259 4.04756C34.9309 1.31291 30.6018 0.140503 25.0634 0.140503H8.98968C8.44168 0.140418 7.91164 0.336228 7.4949 0.69271C7.07816 1.04919 6.80206 1.54295 6.71628 2.08516L0.0234715 44.6093C-0.10956 45.4478 0.538581 46.2072 1.38696 46.2072H11.3103L13.8025 30.3711L13.7252 30.867C13.9027 29.7476 14.8583 28.922 15.99 28.922H20.7055C29.9693 28.922 37.2229 25.1525 39.3418 14.2482C39.4047 13.9257 39.4592 13.6118 39.5063 13.3051C39.2388 13.1632 39.2388 13.1632 39.5063 13.3051C40.1372 9.27477 39.502 6.53134 37.3259 4.04756Z" fill="#27346A"/>
<path d="M17.5996 11.8532C17.8708 11.7236 18.1676 11.6566 18.4681 11.657H31.0696C32.5618 11.657 33.9537 11.7542 35.2255 11.9593C35.5814 12.0162 35.9355 12.0841 36.2872 12.1628C36.7857 12.2731 37.2784 12.4079 37.7636 12.567C38.3889 12.7762 38.9712 13.0198 39.5064 13.3051C40.1372 9.27322 39.502 6.53134 37.3258 4.04756C34.9296 1.31291 30.6018 0.140503 25.0634 0.140503H8.9883C7.8565 0.140503 6.89366 0.96596 6.71628 2.08517L0.0234724 44.6077C-0.109559 45.4477 0.538582 46.206 1.38558 46.206H11.3103L16.4808 13.3581C16.5317 13.0353 16.6601 12.7297 16.855 12.4675C17.0499 12.2054 17.3054 11.9946 17.5996 11.8532Z" fill="#27346A"/>
<path d="M39.3416 14.2482C37.2227 25.151 29.9692 28.922 20.7053 28.922H15.9884C14.8568 28.922 13.901 29.7476 13.7251 30.867L10.6247 50.5573C10.5089 51.2911 11.0754 51.9561 11.8165 51.9561H20.1816C20.6608 51.956 21.1242 51.7846 21.4885 51.4727C21.8528 51.1609 22.0941 50.729 22.169 50.2549L22.2505 49.8279L23.8271 39.8177L23.9287 39.2645C24.0036 38.7904 24.2448 38.3586 24.6091 38.0467C24.9734 37.7349 25.4367 37.5635 25.9159 37.5633H27.1678C35.2712 37.5633 41.6163 34.2652 43.4705 24.7269C44.2445 20.7408 43.844 17.4128 41.7966 15.0752C41.1756 14.3672 40.4044 13.7824 39.5061 13.3051C39.4574 13.6133 39.4046 13.9257 39.3416 14.2482Z" fill="#2790C3"/>
<path d="M37.2887 12.4194C36.9584 12.3227 36.6248 12.2372 36.2888 12.1628C35.9369 12.0853 35.5828 12.0179 35.2271 11.9607C33.9538 11.7542 32.563 11.6568 31.0694 11.6568H18.4695C18.1688 11.6563 17.8719 11.7239 17.601 11.8546C17.3064 11.9954 17.0505 12.2061 16.8556 12.4683C16.6606 12.7305 16.5324 13.0364 16.4821 13.3595L13.8039 30.3711L13.7266 30.867C13.9027 29.7476 14.8584 28.922 15.9902 28.922H20.7071C29.9708 28.922 37.2243 25.1525 39.3432 14.2482C39.4062 13.9257 39.4592 13.6131 39.5078 13.3051C38.9713 13.0216 38.3904 12.776 37.765 12.5683C37.6072 12.5159 37.4485 12.4662 37.2889 12.4194" fill="#1F264F"/>
</g>
<defs>
<clipPath id="clip0_135_377">
<rect width="44" height="52" fill="white"/>
</clipPath>
</defs>
</svg>
