<svg width="30" height="30" viewBox="0 0 30 30" fill="none" xmlns="http://www.w3.org/2000/svg">
<circle cx="15" cy="15" r="15" fill="#6D7077"/>
<path d="M13 22.0435C13 22.4304 13.1173 22.8087 13.3371 23.1305C13.5568 23.4522 13.8692 23.703 14.2346 23.8511C14.6001 23.9992 15.0022 24.0379 15.3902 23.9624C15.7781 23.8869 16.1345 23.7006 16.4142 23.4269C16.6939 23.1533 16.8844 22.8047 16.9616 22.4252C17.0387 22.0456 16.9991 21.6523 16.8478 21.2947C16.6964 20.9372 16.44 20.6317 16.1111 20.4167C15.7822 20.2017 15.3956 20.087 15 20.087C14.4696 20.087 13.9609 20.2931 13.5858 20.66C13.2107 21.0269 13 21.5246 13 22.0435ZM15 18.1304C14.6817 18.1304 14.3765 18.0068 14.1515 17.7866C13.9264 17.5665 13.8 17.2679 13.8 16.9565V7.17391C13.8 6.86257 13.9264 6.56398 14.1515 6.34383C14.3765 6.12368 14.6817 6 15 6C15.3183 6 15.6235 6.12368 15.8485 6.34383C16.0736 6.56398 16.2 6.86257 16.2 7.17391V16.9565C16.2 17.2679 16.0736 17.5665 15.8485 17.7866C15.6235 18.0068 15.3183 18.1304 15 18.1304Z" fill="white"/>
</svg>
