<svg width="33" height="42" viewBox="0 0 33 42" fill="none" xmlns="http://www.w3.org/2000/svg">
<path d="M28 0H4.66667C2.08934 0 0 2.08934 0 4.66667V37.3333C0 39.9107 2.08934 42 4.66667 42H28C30.5773 42 32.6667 39.9107 32.6667 37.3333V4.66667C32.6667 2.08934 30.5773 0 28 0Z" fill="#D9D9D9"/>
<path d="M10.5 10.5H22.1667M10.5 17.5H17.5M10.5 24.5H19.8333M10.5 31.5H17.5" stroke="url(#paint0_linear_137_932)" stroke-width="2" stroke-linecap="round"/>
<path d="M7.00008 10.5C7.00008 9.85568 6.47775 9.33334 5.83341 9.33334C5.18908 9.33334 4.66675 9.85568 4.66675 10.5C4.66675 11.1443 5.18908 11.6667 5.83341 11.6667C6.47775 11.6667 7.00008 11.1443 7.00008 10.5Z" fill="url(#paint1_linear_137_932)"/>
<path d="M7.00008 17.5C7.00008 16.8557 6.47775 16.3333 5.83341 16.3333C5.18908 16.3333 4.66675 16.8557 4.66675 17.5C4.66675 18.1443 5.18908 18.6667 5.83341 18.6667C6.47775 18.6667 7.00008 18.1443 7.00008 17.5Z" fill="url(#paint2_linear_137_932)"/>
<path d="M7.00008 24.5C7.00008 23.8557 6.47775 23.3333 5.83341 23.3333C5.18908 23.3333 4.66675 23.8557 4.66675 24.5C4.66675 25.1443 5.18908 25.6667 5.83341 25.6667C6.47775 25.6667 7.00008 25.1443 7.00008 24.5Z" fill="url(#paint3_linear_137_932)"/>
<path d="M7.00008 31.5C7.00008 30.8557 6.47775 30.3333 5.83341 30.3333C5.18908 30.3333 4.66675 30.8557 4.66675 31.5C4.66675 32.1443 5.18908 32.6667 5.83341 32.6667C6.47775 32.6667 7.00008 32.1443 7.00008 31.5Z" fill="url(#paint4_linear_137_932)"/>
<defs>
<linearGradient id="paint0_linear_137_932" x1="16.3333" y1="10.5" x2="16.3333" y2="31.5" gradientUnits="userSpaceOnUse">
<stop/>
<stop offset="1"/>
</linearGradient>
<linearGradient id="paint1_linear_137_932" x1="5.83341" y1="9.33334" x2="5.83341" y2="11.6667" gradientUnits="userSpaceOnUse">
<stop/>
<stop offset="1"/>
</linearGradient>
<linearGradient id="paint2_linear_137_932" x1="5.83341" y1="16.3333" x2="5.83341" y2="18.6667" gradientUnits="userSpaceOnUse">
<stop/>
<stop offset="1"/>
</linearGradient>
<linearGradient id="paint3_linear_137_932" x1="5.83341" y1="23.3333" x2="5.83341" y2="25.6667" gradientUnits="userSpaceOnUse">
<stop/>
<stop offset="1"/>
</linearGradient>
<linearGradient id="paint4_linear_137_932" x1="5.83341" y1="30.3333" x2="5.83341" y2="32.6667" gradientUnits="userSpaceOnUse">
<stop/>
<stop offset="1"/>
</linearGradient>
</defs>
</svg>
