<svg width="46" height="46" viewBox="0 0 46 46" fill="none" xmlns="http://www.w3.org/2000/svg">
<path d="M7.00775 3.00001V9.30707C7.00737 9.43739 7.04726 9.56464 7.12196 9.67142C7.19667 9.77819 7.30254 9.85928 7.42509 9.90358C7.54765 9.94789 7.6809 9.95325 7.80661 9.91892C7.93232 9.8846 8.04436 9.81227 8.1274 9.71184C10.0148 7.59805 12.3279 5.9073 14.9148 4.75057C17.5018 3.59383 20.3041 2.99726 23.1379 3.00001C34.2598 3.00001 43.2754 12.0156 43.2754 23.1375C43.2754 34.2595 34.2598 43.275 23.1379 43.275C12.0159 43.275 3.00039 34.2595 3.00039 23.1375" stroke="#212529" stroke-width="5" stroke-linecap="round" stroke-linejoin="round"/>
<path d="M20.1943 19.3494C20.1943 18.8253 20.556 18.1926 21.2696 17.7987V20.8995C20.556 20.5063 20.1943 19.8736 20.1943 19.3494ZM24.3448 27.817V24.7169C25.0584 25.1101 25.4201 25.7428 25.4201 26.2669C25.4201 26.7911 25.0584 27.4237 24.3448 27.817Z" fill="black" stroke="#212529"/>
<path d="M36.1427 22.8077C36.1427 30.1726 30.1726 36.1427 22.8077 36.1427C15.4427 36.1427 9.47266 30.1726 9.47266 22.8077C9.47266 15.4427 15.4427 9.47266 22.8077 9.47266C30.1726 9.47266 36.1427 15.4427 36.1427 22.8077ZM23.8949 13.4194C23.6066 13.131 23.2155 12.969 22.8077 12.969C22.3999 12.969 22.0088 13.131 21.7204 13.4194C21.432 13.7078 21.27 14.0989 21.27 14.5067V14.5411C19.0258 15.0999 17.1195 16.882 17.1195 19.3489C17.1195 21.8158 19.0258 23.5979 21.27 24.1567V27.8165C20.5565 27.4232 20.1948 26.7906 20.1948 26.2664C20.1948 25.8586 20.0328 25.4675 19.7444 25.1791C19.4561 24.8908 19.065 24.7288 18.6572 24.7288C18.2494 24.7288 17.8583 24.8908 17.5699 25.1791C17.2815 25.4675 17.1195 25.8586 17.1195 26.2664C17.1195 28.7333 19.0258 30.5154 21.27 31.0742V31.1087C21.27 31.5165 21.432 31.9076 21.7204 32.1959C22.0088 32.4843 22.3999 32.6463 22.8077 32.6463C23.2155 32.6463 23.6066 32.4843 23.8949 32.1959C24.1833 31.9076 24.3453 31.5165 24.3453 31.1087V31.0742C26.5895 30.5154 28.4958 28.7333 28.4958 26.2664C28.4958 23.7995 26.5895 22.0174 24.3453 21.4586V17.7982C25.0589 18.1921 25.4205 18.8248 25.4205 19.3489C25.4205 19.7567 25.5825 20.1478 25.8709 20.4362C26.1593 20.7245 26.5504 20.8865 26.9582 20.8865C27.366 20.8865 27.7571 20.7245 28.0454 20.4362C28.3338 20.1478 28.4958 19.7567 28.4958 19.3489C28.4958 16.882 26.5895 15.0999 24.3453 14.5411V14.5067C24.3453 14.0989 24.1833 13.7078 23.8949 13.4194Z" fill="#212529" stroke="#212529"/>
</svg>
