<svg width="52" height="54" viewBox="0 0 52 54" fill="none" xmlns="http://www.w3.org/2000/svg">
<path d="M25.9954 2.8335C18.7261 2.8335 14.0136 7.71275 8.44075 9.49141C6.17392 10.2164 5.0405 10.5765 4.58134 11.0864C4.12217 11.5939 3.98925 12.3407 3.721 13.8293C0.845171 29.7697 7.1285 44.5065 22.1118 50.2437C23.7189 50.8599 24.5237 51.1668 26.0027 51.1668C27.4817 51.1668 28.2888 50.8575 29.8983 50.2412C44.8793 44.5065 51.1553 29.7697 48.2795 13.8293C48.0113 12.3407 47.8759 11.5939 47.4168 11.084C46.9576 10.5741 45.8266 10.214 43.5598 9.49141C37.9845 7.71275 33.2648 2.8335 25.9954 2.8335Z" stroke="#212529" stroke-width="5" stroke-linecap="round" stroke-linejoin="round"/>
<path d="M18.75 29.4167C18.75 29.4167 21.1667 29.4167 23.5833 34.25C23.5833 34.25 31.2611 22.1667 38.0833 19.75" stroke="#212529" stroke-width="5" stroke-linecap="round" stroke-linejoin="round"/>
</svg>
