<svg width="79" height="56" viewBox="0 0 79 56" fill="none" xmlns="http://www.w3.org/2000/svg">
<path d="M26 0C23.0826 0 20.2847 1.15892 18.2218 3.22182C16.1589 5.28472 15 8.08262 15 11V16H79V11C79 8.08262 77.8411 5.28472 75.7782 3.22182C73.7153 1.15892 70.9174 0 68 0H26ZM79 20H15V37C15 39.9174 16.1589 42.7153 18.2218 44.7782C20.2847 46.8411 23.0826 48 26 48H68C70.9174 48 73.7153 46.8411 75.7782 44.7782C77.8411 42.7153 79 39.9174 79 37V20ZM61 36H69C69.5304 36 70.0391 36.2107 70.4142 36.5858C70.7893 36.9609 71 37.4696 71 38C71 38.5304 70.7893 39.0391 70.4142 39.4142C70.0391 39.7893 69.5304 40 69 40H61C60.4696 40 59.9609 39.7893 59.5858 39.4142C59.2107 39.0391 59 38.5304 59 38C59 37.4696 59.2107 36.9609 59.5858 36.5858C59.9609 36.2107 60.4696 36 61 36Z" fill="black"/>
<path d="M14.7798 54C21.8379 54 27.5596 48.2783 27.5596 41.2202C27.5596 34.1621 21.8379 28.4404 14.7798 28.4404C7.72171 28.4404 2 34.1621 2 41.2202C2 48.2783 7.72171 54 14.7798 54Z" fill="#F49C14" stroke="black" stroke-width="4" stroke-linejoin="round"/>
<path d="M14.7859 33.5524L14.7852 41.2259L20.2034 46.6442" stroke="white" stroke-width="4" stroke-linecap="round" stroke-linejoin="round"/>
</svg>
