<svg width="79" height="79" viewBox="0 0 79 79" fill="none" xmlns="http://www.w3.org/2000/svg">
<path d="M39.5 0C61.3159 0 79 17.682 79 39.4952C79 61.3084 61.3159 78.9904 39.5 78.9904C33.1098 78.9988 26.8137 77.4507 21.1562 74.48L4.21073 78.8916C3.64452 79.0391 3.04961 79.036 2.48494 78.8828C1.92028 78.7295 1.40547 78.4314 0.991544 78.0179C0.577617 77.6044 0.278941 77.0899 0.125118 76.5255C-0.0287058 75.961 -0.0323363 75.3662 0.114586 74.7999L4.52278 57.8604C1.54384 52.1976 -0.0086098 45.8936 3.59142e-05 39.4952C3.59142e-05 17.682 17.6842 0 39.5 0ZM39.5 53.3185C38.4524 53.3185 37.4477 53.7346 36.707 54.4753C35.9662 55.216 35.55 56.2205 35.55 57.268C35.55 58.3155 35.9662 59.3201 36.707 60.0607C37.4477 60.8014 38.4524 61.2175 39.5 61.2175C40.5476 61.2175 41.5523 60.8014 42.2931 60.0607C43.0339 59.3201 43.45 58.3155 43.45 57.268C43.45 56.2205 43.0339 55.216 42.2931 54.4753C41.5523 53.7346 40.5476 53.3185 39.5 53.3185ZM39.5 18.7602C36.6191 18.7602 33.8562 19.9045 31.8191 21.9414C29.782 23.9782 28.6375 26.7408 28.6375 29.6214C28.6378 30.3719 28.9229 31.0943 29.4353 31.6427C29.9477 32.1911 30.6493 32.5246 31.3981 32.5757C32.1469 32.6269 32.8873 32.3919 33.4696 31.9183C34.0518 31.4447 34.4326 30.7677 34.5349 30.0242L34.5902 29.1158C34.7236 27.8601 35.3331 26.7033 36.2935 25.8832C37.2538 25.0631 38.492 24.6422 39.7532 24.7069C41.0145 24.7717 42.203 25.3172 43.0743 26.2313C43.9456 27.1454 44.4334 28.3586 44.4375 29.6214C44.4375 31.7502 43.9043 32.8007 41.8898 34.8821L40.689 36.1065C37.7107 39.2029 36.5375 41.4265 36.5375 45.4195C36.5375 46.2051 36.8496 46.9585 37.4052 47.514C37.9608 48.0695 38.7143 48.3816 39.5 48.3816C40.2857 48.3816 41.0392 48.0695 41.5948 47.514C42.1504 46.9585 42.4625 46.2051 42.4625 45.4195C42.4625 43.2907 42.9958 42.2401 45.0103 40.1587L46.2111 38.9343C49.1894 35.8379 50.3625 33.6143 50.3625 29.6214C50.3625 26.7408 49.2181 23.9782 47.181 21.9414C45.1439 19.9045 42.3809 18.7602 39.5 18.7602Z" fill="#F49C14"/>
</svg>
