<svg width="160" height="252" viewBox="0 0 160 252" fill="none" xmlns="http://www.w3.org/2000/svg">
<path d="M68.5 190.278C62.4442 190.278 56.6365 187.872 52.3544 183.59C48.0723 179.308 45.6667 173.5 45.6667 167.444V137C45.6667 130.944 48.0723 125.136 52.3544 120.854C56.6365 116.572 62.4442 114.167 68.5 114.167C73.0895 114.121 114.167 106.556 114.167 76.1111C114.167 60.8889 98.9444 45.6667 76.1111 45.6667C57.5324 45.6667 45.6667 60.8889 45.6667 68.5C45.6667 71.4985 45.0761 74.4677 43.9286 77.2379C42.7811 80.0082 41.0992 82.5253 38.9789 84.6456C36.8587 86.7659 34.3415 88.4478 31.5713 89.5952C28.801 90.7427 25.8318 91.3333 22.8333 91.3333C19.8348 91.3333 16.8657 90.7427 14.0954 89.5952C11.3251 88.4478 8.808 86.7659 6.68773 84.6456C4.56745 82.5253 2.88556 80.0082 1.73808 77.2379C0.5906 74.4677 -6.3189e-08 71.4985 0 68.5C0 31.373 34.8589 0 76.1111 0C137 0 159.833 45.5297 159.833 83.7222C159.833 115.27 142.503 139.382 111.023 151.613C104.173 154.285 97.3994 156.081 91.3333 157.299V167.444C91.3333 173.5 88.9277 179.308 84.6456 183.59C80.3635 187.872 74.5558 190.278 68.5 190.278Z" fill="white"/>
<path d="M68.5003 251.167C81.1108 251.167 91.3337 240.944 91.3337 228.333C91.3337 215.723 81.1108 205.5 68.5003 205.5C55.8898 205.5 45.667 215.723 45.667 228.333C45.667 240.944 55.8898 251.167 68.5003 251.167Z" fill="white"/>
</svg>
