<svg width="97" height="109" viewBox="0 0 97 109" fill="none" xmlns="http://www.w3.org/2000/svg">
<path d="M40.533 89.9151C39.0442 92.4939 36.5919 94.3756 33.7156 95.1463C30.8394 95.917 27.7748 95.5135 25.196 94.0247C22.6172 92.5358 20.7355 90.0835 19.9648 87.2073C19.1941 84.331 19.5976 81.2664 21.0865 78.6876C22.5753 76.1089 25.0276 74.2271 27.9039 73.4565C30.7801 72.6858 33.8447 73.0892 36.4235 74.5781C39.0023 76.067 40.884 78.5192 41.6547 81.3955C42.4253 84.2717 42.0219 87.3363 40.533 89.9151Z" fill="#F49C14"/>
<path fill-rule="evenodd" clip-rule="evenodd" d="M62.8042 28.5656C59.5469 26.685 56.1901 26.0434 53.4183 26.2971C50.7476 26.5442 48.9083 27.5631 47.8585 28.7525C46.417 30.3204 44.4183 31.2608 42.2914 31.3719C40.1645 31.4831 38.0787 30.7562 36.4815 29.3472C34.8844 27.9382 33.9031 25.9593 33.7482 23.8351C33.5932 21.711 34.2771 19.6107 35.6529 17.9848C39.917 13.1478 45.89 10.6391 51.9419 10.0819C58.2391 9.50414 64.9351 10.9976 70.9441 14.4669C83.3753 21.644 91.4638 37.3985 83.7561 50.7485C79.2932 58.4785 71.0893 62.0781 63.0335 62.2887C60.875 62.3439 58.783 61.5394 57.2176 60.0522C55.6523 58.5649 54.7419 56.5168 54.6867 54.3582C54.6315 52.1997 55.436 50.1077 56.9232 48.5424C58.4105 46.9771 60.4587 46.0666 62.6172 46.0114C66.3679 45.9146 68.6525 44.3491 69.6573 42.6086C71.2685 39.818 70.5488 33.037 62.8042 28.5656Z" fill="#F49C14"/>
<path fill-rule="evenodd" clip-rule="evenodd" d="M51.9566 47.3558C55.8459 49.6013 57.1871 54.5761 54.936 58.4752L50.7201 65.7774C49.6407 67.647 47.8628 69.0112 45.7775 69.57C43.6922 70.1287 41.4704 69.8362 39.6008 68.7568C37.7312 67.6774 36.3669 65.8995 35.8082 63.8142C35.2494 61.7289 35.5419 59.5071 36.6213 57.6374L40.8373 50.3353C43.0828 46.446 48.0624 45.1075 51.9566 47.3558Z" fill="#F49C14"/>
<path fill-rule="evenodd" clip-rule="evenodd" d="M70.9771 54.0336C70.9944 55.1033 70.8008 56.1658 70.4072 57.1606C70.0137 58.1553 69.4278 59.0627 68.6833 59.8309C67.9388 60.5991 67.0501 61.213 66.0682 61.6375C65.0862 62.062 64.0302 62.2888 62.9606 62.3049L48.0196 62.5398C45.861 62.5743 43.7771 61.75 42.2263 60.248C40.6756 58.7461 39.785 56.6896 39.7504 54.531C39.7159 52.3724 40.5403 50.2885 42.0422 48.7377C43.5442 47.187 45.6007 46.2964 47.7593 46.2618L62.7079 46.0248C63.7769 46.0081 64.8387 46.2021 65.8327 46.5958C66.8267 46.9895 67.7334 47.5751 68.5011 48.3193C69.2687 49.0635 69.8822 49.9516 70.3066 50.9329C70.7309 51.9142 70.9606 52.9646 70.9771 54.0336Z" fill="#F49C14"/>
</svg>
