<svg width="41" height="30" viewBox="0 0 41 30" fill="none" xmlns="http://www.w3.org/2000/svg">
<path fill-rule="evenodd" clip-rule="evenodd" d="M27.0295 13.2223C27.2263 11.3671 27.7511 9.88589 28.6649 8.57243C29.8902 6.82035 31.9449 5.18332 35.342 3.44323C35.5599 3.34522 35.7561 3.20292 35.9187 3.02497C36.0812 2.84702 36.2067 2.63715 36.2876 2.40807C36.3684 2.17899 36.4029 1.9355 36.389 1.69237C36.375 1.44924 36.313 1.21154 36.2065 0.993698C36.1 0.775861 35.9514 0.582428 35.7696 0.425142C35.5879 0.267854 35.3768 0.149991 35.1491 0.078712C34.9215 0.00743241 34.682 -0.0157762 34.4454 0.010486C34.2087 0.0367483 33.9797 0.111938 33.7723 0.231494C30.1409 2.08663 27.5098 4.04483 25.8066 6.48719C24.0705 8.9703 23.4286 11.7674 23.4286 15.0199L23.4286 25.8056C23.4286 26.918 23.8605 27.9849 24.6294 28.7715C25.3983 29.5581 26.4412 30 27.5286 30L36.9 30C37.9874 30 39.0302 29.5581 39.7991 28.7715C40.568 27.9849 41 26.918 41 25.8056L41 17.4167C41 15.1014 39.1632 13.2223 36.9 13.2223L27.0295 13.2223ZM3.60097 13.2223C3.79777 11.3671 4.32257 9.88588 5.23628 8.57243C6.4616 6.82035 8.51628 5.18332 11.9134 3.44323C12.1314 3.34522 12.3276 3.20291 12.4901 3.02497C12.6526 2.84702 12.7782 2.63714 12.859 2.40807C12.9398 2.17899 12.9743 1.9355 12.9604 1.69237C12.9465 1.44923 12.8844 1.21153 12.7779 0.993696C12.6714 0.775859 12.5228 0.582425 12.3411 0.42514C12.1593 0.267852 11.9482 0.149989 11.7205 0.0787099C11.4929 0.00743036 11.2535 -0.0157783 11.0168 0.010484C10.7801 0.0367462 10.5511 0.111936 10.3437 0.231492C6.71229 2.08663 4.08126 4.04483 2.378 6.48719C0.641939 8.9703 -2.22075e-06 11.7674 -2.50509e-06 15.0199L-3.44801e-06 25.8056C-3.54526e-06 26.918 0.431961 27.9849 1.20086 28.7715C1.96976 29.5581 3.01261 30 4.1 30L13.4714 30C14.5588 30 15.6017 29.5581 16.3706 28.7715C17.1395 27.9849 17.5714 26.918 17.5714 25.8056L17.5714 17.4167C17.5714 15.1014 15.7346 13.2223 13.4714 13.2223L3.60097 13.2223Z" fill="#F49C14"/>
</svg>
