<svg width="30" height="30" viewBox="0 0 30 30" fill="none" xmlns="http://www.w3.org/2000/svg">
<circle cx="15" cy="15" r="15" fill="white"/>
<path d="M15 0C6.71652 0 0 6.71652 0 15C0 23.2835 6.71652 30 15 30C23.2835 30 30 23.2835 30 15C30 6.71652 23.2835 0 15 0ZM15 27.4554C8.12277 27.4554 2.54464 21.8772 2.54464 15C2.54464 12.0201 3.59263 9.28125 5.3404 7.13839L22.8616 24.6596C20.7187 26.4074 17.9799 27.4554 15 27.4554ZM24.6596 22.8616L7.13839 5.3404C9.28125 3.59263 12.0201 2.54464 15 2.54464C21.8772 2.54464 27.4554 8.12277 27.4554 15C27.4554 17.9799 26.4074 20.7187 24.6596 22.8616Z" fill="#C0392B"/>
</svg>
