<svg width="188" height="26" viewBox="0 0 188 26" fill="none" xmlns="http://www.w3.org/2000/svg">
<path d="M27.2942 11.8991L21.666 16.5739L23.3807 23.5649C23.4753 23.9444 23.451 24.3424 23.3107 24.7086C23.1704 25.0748 22.9206 25.3927 22.5927 25.6223C22.2648 25.8519 21.8735 25.9828 21.4684 25.9984C21.0633 26.0141 20.6624 25.9138 20.3164 25.7103L14.0003 21.9685L7.68033 25.7103C7.33441 25.9126 6.93402 26.0119 6.52958 25.9957C6.12514 25.9795 5.73473 25.8484 5.40751 25.6191C5.08029 25.3897 4.83089 25.0723 4.69072 24.7067C4.55055 24.3412 4.52587 23.9439 4.6198 23.5649L6.3408 16.5739L0.712524 11.8991C0.406468 11.6445 0.185123 11.3088 0.076132 10.9338C-0.0328595 10.5588 -0.0246669 10.1612 0.0996864 9.79073C0.22404 9.42021 0.459043 9.09316 0.775347 8.85043C1.09165 8.6077 1.47524 8.46004 1.8782 8.42591L9.25749 7.85285L12.1041 1.22179C12.2582 0.860399 12.5205 0.551276 12.8575 0.333719C13.1946 0.116163 13.5913 0 13.9971 0C14.403 0 14.7996 0.116163 15.1367 0.333719C15.4738 0.551276 15.736 0.860399 15.8901 1.22179L18.7355 7.85285L26.1148 8.42591C26.5186 8.45878 26.9033 8.60561 27.2207 8.848C27.5382 9.09039 27.7743 9.41757 27.8994 9.78854C28.0245 10.1595 28.0331 10.5578 27.9241 10.9334C27.8152 11.3091 27.5934 11.6455 27.2867 11.9004L27.2942 11.8991Z" fill="#F49C14"/>
<path d="M67.2942 11.8991L61.666 16.5739L63.3807 23.5649C63.4753 23.9444 63.451 24.3424 63.3107 24.7086C63.1704 25.0748 62.9206 25.3927 62.5927 25.6223C62.2648 25.8519 61.8735 25.9828 61.4684 25.9984C61.0633 26.0141 60.6624 25.9138 60.3164 25.7103L54.0003 21.9685L47.6803 25.7103C47.3344 25.9126 46.934 26.0119 46.5296 25.9957C46.1251 25.9795 45.7347 25.8484 45.4075 25.6191C45.0803 25.3897 44.8309 25.0723 44.6907 24.7067C44.5505 24.3412 44.5259 23.9439 44.6198 23.5649L46.3408 16.5739L40.7125 11.8991C40.4065 11.6445 40.1851 11.3088 40.0761 10.9338C39.9671 10.5588 39.9753 10.1612 40.0997 9.79073C40.224 9.42021 40.459 9.09316 40.7753 8.85043C41.0917 8.6077 41.4752 8.46004 41.8782 8.42591L49.2575 7.85285L52.1041 1.22179C52.2582 0.860399 52.5205 0.551276 52.8575 0.333719C53.1946 0.116163 53.5913 0 53.9971 0C54.403 0 54.7996 0.116163 55.1367 0.333719C55.4738 0.551276 55.736 0.860399 55.8901 1.22179L58.7355 7.85285L66.1148 8.42591C66.5186 8.45878 66.9033 8.60561 67.2207 8.848C67.5382 9.09039 67.7743 9.41757 67.8994 9.78854C68.0245 10.1595 68.0331 10.5578 67.9241 10.9334C67.8152 11.3091 67.5934 11.6455 67.2867 11.9004L67.2942 11.8991Z" fill="#F49C14"/>
<path d="M107.294 11.8991L101.666 16.5739L103.381 23.5649C103.475 23.9444 103.451 24.3424 103.311 24.7086C103.17 25.0748 102.921 25.3927 102.593 25.6223C102.265 25.8519 101.874 25.9828 101.468 25.9984C101.063 26.0141 100.662 25.9138 100.316 25.7103L94.0003 21.9685L87.6803 25.7103C87.3344 25.9126 86.934 26.0119 86.5296 25.9957C86.1251 25.9795 85.7347 25.8484 85.4075 25.6191C85.0803 25.3897 84.8309 25.0723 84.6907 24.7067C84.5505 24.3412 84.5259 23.9439 84.6198 23.5649L86.3408 16.5739L80.7125 11.8991C80.4065 11.6445 80.1851 11.3088 80.0761 10.9338C79.9671 10.5588 79.9753 10.1612 80.0997 9.79073C80.224 9.42021 80.459 9.09316 80.7753 8.85043C81.0917 8.6077 81.4752 8.46004 81.8782 8.42591L89.2575 7.85285L92.1041 1.22179C92.2582 0.860399 92.5205 0.551276 92.8575 0.333719C93.1946 0.116163 93.5913 0 93.9971 0C94.403 0 94.7996 0.116163 95.1367 0.333719C95.4738 0.551276 95.736 0.860399 95.8901 1.22179L98.7355 7.85285L106.115 8.42591C106.519 8.45878 106.903 8.60561 107.221 8.848C107.538 9.09039 107.774 9.41757 107.899 9.78854C108.025 10.1595 108.033 10.5578 107.924 10.9334C107.815 11.3091 107.593 11.6455 107.287 11.9004L107.294 11.8991Z" fill="#F49C14"/>
<path d="M147.294 11.8991L141.666 16.5739L143.381 23.5649C143.475 23.9444 143.451 24.3424 143.311 24.7086C143.17 25.0748 142.921 25.3927 142.593 25.6223C142.265 25.8519 141.874 25.9828 141.468 25.9984C141.063 26.0141 140.662 25.9138 140.316 25.7103L134 21.9685L127.68 25.7103C127.334 25.9126 126.934 26.0119 126.53 25.9957C126.125 25.9795 125.735 25.8484 125.408 25.6191C125.08 25.3897 124.831 25.0723 124.691 24.7067C124.551 24.3412 124.526 23.9439 124.62 23.5649L126.341 16.5739L120.713 11.8991C120.406 11.6445 120.185 11.3088 120.076 10.9338C119.967 10.5588 119.975 10.1612 120.1 9.79073C120.224 9.42021 120.459 9.09316 120.775 8.85043C121.092 8.6077 121.475 8.46004 121.878 8.42591L129.257 7.85285L132.104 1.22179C132.258 0.860399 132.52 0.551276 132.858 0.333719C133.195 0.116163 133.591 0 133.997 0C134.403 0 134.8 0.116163 135.137 0.333719C135.474 0.551276 135.736 0.860399 135.89 1.22179L138.736 7.85285L146.115 8.42591C146.519 8.45878 146.903 8.60561 147.221 8.848C147.538 9.09039 147.774 9.41757 147.899 9.78854C148.025 10.1595 148.033 10.5578 147.924 10.9334C147.815 11.3091 147.593 11.6455 147.287 11.9004L147.294 11.8991Z" fill="#F49C14"/>
<path d="M187.294 11.8991L181.666 16.5739L183.381 23.5649C183.475 23.9444 183.451 24.3424 183.311 24.7086C183.17 25.0748 182.921 25.3927 182.593 25.6223C182.265 25.8519 181.874 25.9828 181.468 25.9984C181.063 26.0141 180.662 25.9138 180.316 25.7103L174 21.9685L167.68 25.7103C167.334 25.9126 166.934 26.0119 166.53 25.9957C166.125 25.9795 165.735 25.8484 165.408 25.6191C165.08 25.3897 164.831 25.0723 164.691 24.7067C164.551 24.3412 164.526 23.9439 164.62 23.5649L166.341 16.5739L160.713 11.8991C160.406 11.6445 160.185 11.3088 160.076 10.9338C159.967 10.5588 159.975 10.1612 160.1 9.79073C160.224 9.42021 160.459 9.09316 160.775 8.85043C161.092 8.6077 161.475 8.46004 161.878 8.42591L169.257 7.85285L172.104 1.22179C172.258 0.860399 172.52 0.551276 172.858 0.333719C173.195 0.116163 173.591 0 173.997 0C174.403 0 174.8 0.116163 175.137 0.333719C175.474 0.551276 175.736 0.860399 175.89 1.22179L178.736 7.85285L186.115 8.42591C186.519 8.45878 186.903 8.60561 187.221 8.848C187.538 9.09039 187.774 9.41757 187.899 9.78854C188.025 10.1595 188.033 10.5578 187.924 10.9334C187.815 11.3091 187.593 11.6455 187.287 11.9004L187.294 11.8991Z" fill="#F49C14"/>
</svg>
