<svg width="52" height="52" viewBox="0 0 52 52" fill="none" xmlns="http://www.w3.org/2000/svg">
<path d="M26 52C40.3594 52 52 40.3594 52 26C52 11.6406 40.3594 0 26 0C11.6406 0 0 11.6406 0 26C0 40.3594 11.6406 52 26 52Z" fill="#26A17B"/>
<path fill-rule="evenodd" clip-rule="evenodd" d="M29.1232 28.2474V28.2441C28.9445 28.2571 28.0231 28.3124 25.9675 28.3124C24.3262 28.3124 23.1709 28.2636 22.7646 28.2441V28.249C16.4466 27.9711 11.7309 26.871 11.7309 25.5547C11.7309 24.2401 16.4466 23.14 22.7646 22.8572V27.1537C23.1774 27.183 24.3604 27.2529 25.9951 27.2529C27.9565 27.2529 28.9396 27.1716 29.1232 27.1554V22.8605C35.4282 23.1416 40.1326 24.2417 40.1326 25.5547C40.1326 26.871 35.4282 27.9679 29.1232 28.2474ZM29.1232 22.4136V18.5689H37.921V12.7059H13.9669V18.5689H22.7646V22.412C15.6146 22.7402 10.2375 24.1572 10.2375 25.8537C10.2375 27.5502 15.6146 28.9656 22.7646 29.2955V41.6162H29.1232V29.2922C36.2619 28.964 41.626 27.5486 41.626 25.8537C41.626 24.1589 36.2619 22.7435 29.1232 22.4136Z" fill="white"/>
</svg>
